<?xml version="1.0" encoding="UTF-8"?>
<svg id="Layer_1" data-name="Layer 1" xmlns="http://www.w3.org/2000/svg" width="1024" height="768" viewBox="0 0 1024 768">
  <defs>
    <style>
      .cls-1 {
        fill: #0c1a22;
      }

      .cls-1, .cls-2, .cls-3 {
        stroke-width: 0px;
      }

      .cls-2 {
        fill: #ed3737;
      }

      .cls-3 {
        fill: #ffdbbb;
      }
    </style>
  </defs>
  <rect class="cls-1" width="1024" height="768"/>
  <g>
    <path class="cls-2" d="m236.1,470.8c-15.5-11.8-31-23.5-46.5-35.3,17,15.9,33.9,31.7,50.9,47.6-1.5-4.1-2.9-8.2-4.4-12.3Z"/>
    <path class="cls-3" d="m366.8,521.6c-1-.9-2.2-1.6-3.1-2.6-3.7-4.6-7.6-9.1-10.9-13.9-9.7-14.3-16.8-29.9-20.3-46.9-1.4-6.8-2.1-13.7-2.5-20.7-.6-10.6.3-21,2.4-31.3,3.8-18.3,11.2-35,21.8-50.4,11.4-16.5,25.3-30.4,41.5-42.2,15.7-11.4,32.8-20.3,51.2-26.6,11.6-4,23.5-6.6,35.6-8.6,16.6-2.7,33.3-3.2,50-2.4,20.9,1.1,41.2,5.1,60.9,12.1,15.9,5.7,31,13.2,44.9,22.7,11.3,7.7,21.6,16.6,30.8,26.6,9.8,10.6,18.1,22.3,24.7,35.2,7.1,14,11.8,28.7,13.6,44.3,3.9,34.5-4.6,65.7-25.4,93.4-2.5,3.3-5.4,6.3-8.2,9.4-.6.7-1.5,1.1-2.7,2.1.1-1.1,0-1.7.3-2.2.9-1.9,2-3.8,2.9-5.7,4-8.2,4.8-16.8,2.5-25.7-2.7-10.6-12.1-18.2-23.1-18.6-4.5-.2-9,.1-13.2,2-6.2,2.7-10.4,6.9-10.9,14.2-.1,2.4-.9,4.8-1.2,7.3-.2,1.5-.4,3.2.1,4.5,1.3,2.9.8,5.8.5,8.8-.3,4.4-.6,8.8.6,13.1.6,2.3,1.5,4.5,2.4,6.6,1.1,2.6,3,4.4,6,4.8.7.1,1.4.4,2.5.7.6,2.5,1.3,5.2,1.9,7.9-4.4,4.6-8.7,9.1-13.9,12.6-2.4,1.6-4.9,3.1-7.2,4.8-1.8,1.3-3.4,2.9-5.1,4.4-.8.7-1.6,1.4-2.6,1.9-13.3,6.7-27.1,11.9-41.6,14.9-2.2.5-4.3,1.1-6.5,1.7-.3,0-.7,0-.9-.3-5.9-4.2-12.8-6.4-19.5-9.1-2.4-1-4.7-2.1-6.9-3.5-3.9-2.4-5-5.2-3.9-9.6.8-3.1,1.9-6.1,2.8-8.9,7.5-4.7,9.5-11.4,5.2-17.1.4-5.1.4-10.2-1.1-15.2-2.9-10.2-9.6-15.9-20.2-17-7.1-.8-13.5.7-18.4,6.1-3.8,4.1-5.8,9.2-6.8,14.7-.7,3.7-1,7.4-.2,11.3-.8.6-1.5,1.1-2,1.5-1.2,7.5,1.2,12.7,7.3,16.3,1.4,3,2.7,6.3,3,9.9.2,2.7-.6,5.2-2.9,6.8-2.5,1.7-5.1,3.1-7.8,4.3-2.8,1.3-5.8,2.2-8.7,3.4-3.4,1.5-6.8,3.1-10.1,4.8-1.5.8-3,1.1-4.6.7-7.7-2.1-15.6-4-23.2-6.4-7.7-2.5-14.9-5.9-22-9.7-.8-.5-1.8-.9-2.4-1.6-2.7-3.4-6.5-5.6-10.1-7.8-6-3.7-11.1-8.4-16.2-13.4.1-3,.8-5.8,1.8-8.6.9-.3,1.6-.6,2.3-.7,3.1-.4,5-2.2,6.4-4.8,1.6-3.1,2.8-6.3,2.9-9.8.1-4.3-.3-8.5-.4-12.8,0-.9-.3-2.1.1-2.8,1.8-3.4,1.3-6.9.6-10.4-.5-2.9-1.5-5.8-1.7-8.8-.2-2.8-2.3-4.8-4.4-6.5-2.8-2.2-5.9-3.8-9.5-4.5-4.7-.9-9.4-1.3-14-.2-10.3,2.4-16.2,9.2-18.5,19.2-2.2,9.6-.7,18.7,3.9,27.4.7,1.4,1.4,2.8,2.1,4.2-.2.2-.5.4-.7.7Zm134.9-181.3c.6,1.6,1.6,3.7,3,5.9,1.8,2.8,2.9,3.7,4,6.1.7,1.5,1.4,3.7,1.6,6.5-1-.8-2-1.7-3-2.8-1-1-1.9-2.1-2.7-3-.6.1-1.1.2-1.6.3-7.9,2.2-15.3,5.4-22.5,9.3-6.6,3.6-10.7,8.9-12.2,16.4-2.6,13.1-5.6,26.2-8.3,39.3-.9,4.4-1.7,8.9-2,13.3-.4,5.4.8,7.1,5.9,8.8,5,1.7,10,3.3,15,4.8,5.7,1.7,11.5,3.2,17.6,4.9-1.2-7.4-.9-14.2,3-20.6-5.7-2.8-11.9-3.4-17.1-6.5.7-3.9,1.3-7.5,2-11.1.7-3.4.6-7.1,2.3-10.3.3,1.2.3,2.3.3,3.5.3,5.2.8,10.5,1.1,15.7.1,2.4,1.5,3.6,3.6,4.3,3.1,1,6.2,1.5,9.5,1.3,1.1,0,2.2,0,3.4,0-.1,1-.2,1.6-.3,2.5,2.2,0,4.2-.2,6.2,0,2.1.3,4.1,1,6.2,1.8,1.8.6,4,.3,5.6,2.6-3.8.6-6.9-.9-10.1-1.3-3.4-.4-6.8-.2-10.1-.3-2.8,5.5-2.8,10.9-2,16.3,7,3.2,13.6,4.4,20.3,3.7.7-.5,1.5-1.1,2.4-1.7,2,1.8,4.1,1.3,6.4.6,2.8-.8,5.8-1.4,8.8-2.1.4-6,1.2-11.8-3.2-16.8h-4.8c-2.8-1.3-4.9-2.3-7-3.3-2.1-.9-4.7-.6-6.6-2.2.7-1.5,1.9-.9,2.8-.7,3.9.9,7.7,1.9,11.5,2.8.9.2,1.8.3,2.8.5.3-1,.5-1.8.7-2.4,5.3-1.7,10.8-1.2,16.2-3.3.2-2.5.3-4.9.5-7.4.2-2.6.3-5.1.6-7.7.3-2.3-.6-4.8,1-7.5,1.2,7.9,2.3,15.1,3.5,22.6-6.1,2-12,4-18.2,6.1,4.3,6.5,4.7,13.4,3.8,20.8,1.7-.4,3-.7,4.2-1,9.7-3,19.4-6,29.1-9.1,4-1.2,5.5-3.2,5.4-7.3,0-2.9-.4-5.8-1-8.6-2-10.5-4-21-6.1-31.5-1.2-5.7-2.5-11.3-4-16.9-1.4-5.1-4.5-8.9-9-11.7-5.1-3.2-10.5-5.9-16.1-8-3.3-1.2-6.7-2.2-10-3.3-1,.7-2.1,1.6-3.3,2.6-1.2,1.1-2.2,2.1-3.1,3.1,0-1.5.3-3.6,1.4-6,1.2-2.7,2.6-3.7,4.4-6.8.8-1.3,1.8-3.3,2.6-6,1.6-1,5.1-3.5,6-7.7.2-1.1.8-3.8-.7-4.9-1-.8-2.3-.5-2.9-.4.7-4.3.8-8.5,0-12.6-2.4-11.5-13.1-18.5-25.3-15.6-8.3,2-14.3,9.3-14.7,19.2-.1,3.1.4,6.1.6,9.3-.6,0-1.9,0-2.7.8-1.5,1.4-.7,4.1-.4,5.3,1.1,3.9,4.1,6.2,5.7,7.1Z"/>
    <path class="cls-3" d="m524.7,438.8c-2.8.8-6,.8-8.8,0,2.8-.8,6-.8,8.8,0h0Z"/>
    <path class="cls-3" d="m515.6,442.4c3-1,6.4-1.1,9.5-.4-3,1-6.4,1.1-9.5.4h0Z"/>
    <path class="cls-3" d="m516.3,445.8c2.6-1.1,5.7-1.4,8.6-.8-2.6,1.1-5.7,1.4-8.6.8h0Z"/>
    <g>
      <path class="cls-2" d="m251.3,483.1s0,0,0,0c0,0,0,0,0,0h0Z"/>
      <path class="cls-2" d="m363.9,320.9c0,0,0-.2-.1-.2,0,0,0,.2,0,.3h0Z"/>
      <path class="cls-2" d="m674.6,318.4s0,0,0-.1c0,0,0,0,0,0h0Z"/>
      <path class="cls-2" d="m221.1,211s0,0,0,0c0,0,0,0,0,0h0Z"/>
      <path class="cls-2" d="m830.8,349.7c-7.1,5.7-14.3,11.5-21.4,17.2-1.1-8.8-2.5-18.3-4.6-28.3-2.2-10.4-4.7-20-7.3-28.7,9.9-8.7,19.7-17.5,29.6-26.2-10.4,7.2-20.8,14.3-31.2,21.5-4.8-11.8-9.5-23.3-14.3-34.9,9.4-9,18.8-18.1,28.2-27.1-10.2,7.5-20.5,15.1-30.7,22.6-3-5.8-6.6-11-9.4-16.8,16.6-16.1,33.2-32.2,49.8-48.3-17.6,13.9-35.1,27.8-52.7,41.7-1.9-1.5-10.8-14.5-12.4-18.1,24.9-26,49.7-52,74.6-77.9-27.8,22.5-55.5,45-83.3,67.5-3.5-5.1-8.3-9.2-11.8-14.6,24-26.4,48-52.8,72-79.2-27.2,23.1-54.4,46.3-81.7,69.4-2.3-2.4-4.4-4.7-6.7-7,11.4-12.9,22.8-25.7,34.2-38.6-13.1,11.1-26.1,22.3-39.2,33.4-2.5-2.2-5-4.3-7.6-6.5-2.5-2.1-4.9-4.2-7.4-6.3,10.9-14.1,21.7-28.2,32.6-42.3-13,12.6-26.1,25.2-39.1,37.8-2.9-2.1-5.6-4.1-8.3-6-13.2-8.9-27.1-16.6-41.6-22.9-19.8-8.6-40.2-15.3-61.4-19.8-15.1-3.2-30.4-5.2-45.8-5.8-16.2-.6-32.4-.7-48.4,1.7-7.9,1.2-15.9,2-23.8,3.4-15.9,2.8-31.3,7.2-46.4,12.9-6,2.2-12,4.7-17.8,7.4-6.8,3.2-13.5,6.6-20.1,10.1-4.5,2.4-8.8,5.2-13.4,8-9.6-10.1-19.3-20.1-28.9-30.2,8.2,11,16.3,22.1,24.5,33.1-7.7,5.6-15.1,11.1-22.7,16.6-16.6-16.3-33.3-32.6-49.9-48.9,14.2,18.6,28.4,37.1,42.6,55.7-3,2.9-5.8,5.6-8.7,8.4-.6-.5-1.2-1-1.7-1.4-15.3-12.7-30.2-25.7-44.7-38.8,13.6,15.3,27.2,30.7,40.8,46-3.3,3.7-6.6,7.5-10.1,11.4-1.5-1.2-3-2.4-4.5-3.6-28.8-22.6-56.4-45.7-83-69.2,25.6,28.4,51.1,56.8,76.7,85.1-4,5.3-7.7,10.5-11.8,15.9-21.4-16.2-42.8-32.4-64.3-48.5,19.7,18.9,39.4,37.8,59.1,56.6-2.4,3.8-4.6,7.3-6.9,11-15.9-12-31.8-24.1-47.7-36.1,14.8,14,29.5,27.9,44.3,41.9-4,7.9-7.9,15.6-11.9,23.5-10.7-7.6-21.5-15.2-32.2-22.7,10,9.3,20,18.6,30,27.9-3.3,8-6.5,16.5-9.6,25.4-3.5,9.9-6.4,19.5-9,28.7-8.8-5.3-17.5-10.6-26.3-16,8.6,7,17.2,13.9,25.8,20.9-2,15.3-3.9,30-5.9,45-7.7-4.9-15.3-9.9-23-14.8,7.7,6.8,15.4,13.6,23.1,20.4-.2,19.6,1.2,38.7,5.5,57.5,0-2.2-.2-4.4-.3-6.6-.3-7.4.3-14.8,1.3-22.1,1.2-9.4,3.6-18.5,7.4-27.2,2.3-5.3,6-9.1,11.7-10.6,1.1-.3,2.1-.7,3.1-1.1,0-.6,0-.8,0-1-.5-.8-.9-1.7-1.5-2.5-4.6-7-7-14.6-6.6-23.1.6-14.2,11.4-25.2,25.9-24.4,11.7.6,19.4,8.8,21.6,17.6,1.6,6.3,2.2,12.6,1.3,19.1-.5,4.3-1.7,8.4-3.9,12.2-1,1.7-2.2,3.2-3.9,4.2-2.1,1.2-4.3,2.4-7,4-.9,3.2-2,7-3.1,10.5,3.4,4.1,6.5,7.9,9.9,11.9-1.1.1-1.8.2-2.4.3-4.2.7-8.5,1.3-12.2,3.7-8.4,5.2-12.1,13-12.8,22.5-.4,6,1.2,11.7,3.6,17.1,1.2,2.7,2.6,5.4,3.8,8.2,1.6,3.8.9,5.2-2.8,6.7-1.9.7-3.8,1.4-5.6,2.4-4.7,2.5-8.3,5.9-9.3,11.5.3-.3.6-.6.8-.9,3.3-4.7,7.7-7.6,13.3-8.8.7-.1,1.5-.3,2.2-.6,4-1.6,5.8-5.4,4.2-9.4-.8-2-1.8-3.9-2.7-5.8-2.4-5.1-4.3-10.2-4.7-15.9-.4-7.4,2-13.6,7-18.7,6-6,13.4-8.4,22-7.5,6,.7,10.9,3.3,14.6,7.8,3.9,4.7,5.5,10.2,3.6,16.2-.6,2-.5,4,0,6,.4,1.9.9,3.9.5,5.7-1,4.7-2.2,9.4-3.7,14-1.2,3.6-3.3,6.5-7.3,7.6-.9.2-1.7.8-2.6,1.3-.8,3.7-1.7,7.4-2.4,10.7.5.7.8,1.1,1.1,1.4.4.4.8.7,1.2,1.1,9.2,7.3,15.9,16.5,20.5,27.2,3.5,8.2,6.8,16.4,10.3,24.6.2.4.5.7.7,1.1.3-.7.2-1.2,0-1.7-3.8-10.1-7.4-20.3-11.4-30.4-2.8-7-6.6-13.5-12.3-18.6-1.7-1.5-3.3-3.1-4.8-4.8-2.3-2.5-1.7-6.6,1.4-8.1,4.8-2.3,7.7-6.1,9.1-11.1,1.4-4.9,2.7-9.9,3.9-14.9.2-.9.1-2.3-.4-3-2.2-2.8-1.7-5.6-.6-8.5,1-2.7,1.2-5.5.2-8.2-1.1-3.1-2.3-6.3-4-9.1-3.5-5.8-9.1-9-15.3-11.1-.8-.3-1.8-.4-2.3-1-4-3.6-7.3-7.8-9.9-12.1.3-4.2,1.6-7.2,5.4-9.1,3.7-1.9,6.2-5.1,7.9-9,1.9-4.3,2.9-8.7,3.5-13.3,1-7.2.5-14.1-2.3-20.8-3.7-8.9-10-14.9-19.6-16.9-2.9-.6-5.9-.7-8.9-.9-2.1-.1-4.2,0-7,0,1.3-.9,2-1.6,2.8-2,1.6-1,2.4-2.4,2.6-4.2.3-1.9.7-3.8,1-5.7.5-2.9.6-5.7-1-8.4-.7-1.2-1.2-2.5-1.8-3.8-3.6-8.5-4.8-17.1-1.4-25.9,3.9-10,15.5-16.1,25.9-13.7,8.7,2,14.2,7.7,17.6,15.6,2.8,6.6,3.9,13.5,2.7,20.7-.9,5.4-2.5,10.4-5.6,14.9-2.6,4-5.9,7.1-10.5,8.4-1,.3-2,.8-3.4,1.4,1.2.7,2,1.3,2.8,1.7,7.9,4.1,14.1,10,18.6,17.7,3.2,5.5,6.2,11,9.2,16.5.5.9,1.1,1.9,1.6,2.8-2.9-8.8-6.9-17.1-11.6-25.1-2.8-4.7-6.3-8.7-10.6-12-.5-.4-.9-1.1-1.5-1.8,4.5-4,8.3-8.3,10.8-13.6,2.5-5.4,3.8-11.2,3.9-17.1.1-5.9-1.2-11.5-3.6-16.8-2.4-5.5-6.6-9.6-11-13.4.3-.6.5-.9.7-1.2,2.7-3.8,3.3-7.8,1.1-12.1-1-2-2-4.1-2.9-6.1-2.8-5.8-3.3-12-1.8-18.2,3.3-13.2,16.1-19.1,28.4-16,8.8,2.2,14,8.4,16.6,16.8,2,6.3,2.6,12.8,1.4,19.4-1.1,5.6-2.7,11-6.2,15.7-1.6,2.1-3.4,3.8-5.9,4.8-1.2.5-2.4.9-3.6,1.4-.3.1-.5.4-.9.7.1.6.2,1.3.3,1.9,2.2,1.1,4.3,2,6.2,3.1,7,3.9,12.7,9.1,16.3,16.3,2.5,5.1,4.9,10.3,7.2,15.4,2.2,4.9,4.3,9.9,6.4,14.8-1.3-5.2-2.4-10.5-4.1-15.5-2.2-6.5-5.2-12.7-7.6-19.1-1.4-3.7-3.6-6.9-6.4-9.5-3-2.7-6.1-5.2-9.3-7.9.2-.2.5-.7.9-1,4.5-3.8,6.8-9,8.6-14.4,2.6-7.8,2.7-15.8,1.1-23.8-.4-1.8-.7-3.6-1-5.4,1-1.2,2.1-2.3,3-3.5,1.6-2.2,3.1-4.4,4.5-6.6,1.1-1.7,1-3.4,0-5.2-1.7-3.2-3.2-6.5-5-9.7-5.3-9.7-3.2-21.2,5.2-28.2,4.6-3.8,10-5.4,15.9-4.9,6.3.5,10.7,4.4,13.7,9.6,6.3,10.5,7.1,21.9,3.6,33.5-1.4,4.7-4,8.5-9,10.2-.4.1-.8.5-1.4.9,3.5,1.6,6.6,2.9,9.6,4.5,8.3,4.3,14.7,10.4,17.8,19.4,2.6,7.5,5.1,15,7.6,22.5.9,2.9,1.8,5.8,2.6,8.7.4-.9.3-1.6.1-2.3-2.7-10.4-5.6-20.7-8.2-31.1-2.4-9.8-8.5-16.4-17.3-20.8-1-.5-2-1.1-3.3-1.7,5.6-6.8,7.2-14.6,7.7-22.8,1.1-.7,2-1.2,2.9-1.8,2.7-1.6,5-3.7,6.9-6.2,3.3-4.3,3.6-9.3.6-13.7-4.3-6.3-5.6-13.1-4-20.5.9-4.1,2.5-7.9,5.9-10.4,5.8-4.4,12.4-4.7,18.9-2.1,6.3,2.5,9.4,7.9,10.9,14.2,1.1,4.9,1.1,9.9.6,14.7-.8,7-2.6,13.7-9.7,17.7.8.4,1.5.7,2.1,1,2.9,1.3,5.9,2.5,8.8,4,8.1,4.4,13.9,10.7,15.8,20,1.5,7.3,2.9,14.7,4.3,22.1.4,2.1.9,4.1,1.4,6.2.2-2.9,0-5.6-.4-8.4-.7-5.9-1.7-11.9-2.2-17.8-.7-8.4-3.9-15.3-10.5-20.5-2-1.6-4.2-3-6.4-4.3-1.7-1.1-3.5-1.9-5.5-3,1.5-1.9,2.5-3.8,4.1-5.2,3-2.5,6.3-4.8,9.6-7,4.2-2.8,5-6,2.5-10.4-3.1-5.3-4.6-11.1-4.1-17.2.5-5.7,2.2-10.7,7.6-13.7,5.7-3.2,13.3-2.6,18,1.8,3.1,2.9,5,6.8,5.6,11,.9,7,.6,13.9-2.8,20.4-.9,1.6-1.6,3.2-2.4,4.8,4.5,3.4,8.9,6.7,13.4,10.1.7-.2,1.7-.3,2.5-.7,5-2,9.9-4,14.9-6.1,1.8-.7,3.5-1.7,4.7-4-1-3-2.1-6.3-3.3-9.7-2.8-1.5-4.5-3.7-5.3-6.7-.3-1.2-.7-2.5-1.1-3.7-.8-2.6-.4-4.9,2.1-6.2,0-4.5.8-8.5,2.4-12.1,4.9-11.4,19.4-14,27.6-7.7,5,3.8,7.3,9.1,7.9,15.2.1,1.6,0,3.2,0,4.6,2.9,1.4,3.4,1.9,3.1,3.8-.7,4.1-1.5,8.4-4.8,11.3-2.9,2.7-3.6,6.2-4.6,9.7-.3.9,0,1.9,0,2.9,7.4,4.2,14.9,7,22.2,9.1,4.8-3.5,9.2-6.7,13.7-10-3.6-4.8-5.5-10.2-6-15.9-.7-7.6.6-14.7,6.6-20.3,6.6-6.2,18.1-4.4,22.5,3.6,2.6,4.8,3.4,9.8,2.4,15.2-.8,4.2-2.2,8.1-4.2,11.8-1,1.8-.9,3.5,0,5.2.5.9,1.4,1.6,2.2,2.3,3.8,3.1,7.7,6.2,11.4,9.4,1.1.9,2.3,2,2.3,3.9-.4.3-.9.8-1.4,1.1-3.1,2-6.4,3.9-9.5,6-6.2,4.4-9.6,10.6-10.8,18-1.3,8.1-2.1,16.3-3.2,24.5-.3,2.1-.4,4.2-.6,6.3.6-.4.8-.9.9-1.3,1.8-9.1,3.6-18.3,5.4-27.4,1.5-7.8,5.2-14.2,11.9-18.7,3.7-2.5,7.6-4.3,11.8-5.8,1-.4,2.3-.4,2.9-1.5-.1-.3-.1-.4-.2-.5-.2-.2-.4-.5-.7-.6-3.9-2.2-5.9-5.7-7.2-9.8-.9-2.8-.8-5.7-1.3-8.5-.9-6.1.2-11.8,2.5-17.2,2.4-5.7,6.6-9.8,13-10.7,2.3-.3,4.7-.4,7,0,6.2.7,10.6,4.1,12.6,10,2.9,8.2,2.5,16.3-2.7,23.6-3.1,4.3-2.8,8.7-.4,13,1.7,3.1,4.2,5.7,7.4,7.4.9.5,1.8,1,2.9,1.6,1,8.1,1.9,16.3,7.8,22.9-3.1,2-5.8,3.8-8.6,5.5-3.5,2.2-6.4,5-8.2,8.8-1.3,2.7-2.5,5.5-3.3,8.4-2.6,9.8-5.1,19.7-7.6,29.6-.2.6-.1,1.3-.2,1.9.9-1.4,1.3-2.8,1.8-4.2,2.3-7.4,4.4-14.8,6.9-22.1,1.8-5.3,4-10.4,8.1-14.4,5.4-5.2,11.8-8.5,18.6-11.2.8-.3,1.6-.7,2.3-1-2.3-1.3-4.5-2.2-6.3-3.6-2.8-2.1-4.2-5.4-5.2-8.7-2-6-2-12.3-1.1-18.4,1.1-6.9,3.6-13.3,9-18.1,4.9-4.3,10.6-6.8,17.1-5.1,12.3,3.3,19.5,14.9,16.5,27.5-.5,2.2-1.4,4.3-2.4,6.3-1.5,3.1-3.1,6.1-4.8,9.1-.9,1.7-1.1,3.3,0,4.9,1.5,2.3,3.1,4.6,4.8,6.8.9,1.1,2.2,2,3.2,2.9-4.6,16.8-3.3,32.2,9.1,45.3-.7.5-1.2.8-1.6,1.1-6.6,3.6-11.5,8.8-14.7,15.6-3.9,8.1-6.6,16.7-9.4,25.3-.8,2.4-1.2,4.9-1.7,7.4.6-1,1.3-1.9,1.8-2.9,1.4-3.2,2.7-6.5,4.1-9.8,2-4.5,3.8-9.1,6.1-13.5,3.8-7.6,9.4-13.8,17-17.9,1.9-1,3.9-1.9,5.8-2.8,1.1-.5,2.2-1.1,1.4-2.9-.9-.3-2.1-.6-3.1-1.1-1.4-.7-3.1-1.2-4.1-2.4-2.1-2.4-4.1-5-5.5-7.8-3.6-7.4-4.4-15.3-3.3-23.5.6-3.9,1.5-7.7,3.4-11.3,5.4-10.7,15.4-14.7,26.6-12.5,12.9,2.5,18.9,14.7,17.6,26.5-.6,5.3-2.9,10.1-5.3,14.7-1.7,3.2-1.7,6.3-.2,9.6.5,1,.9,2.1,1.5,3.4-10.3,7.6-14.5,17.9-14.1,30.2.4,12.1,4.6,22.5,14.8,30.3-1.1.9-1.8,1.7-2.6,2.3-3.5,2.6-6.4,5.7-8.7,9.3-5,7.8-8.8,16.2-12.5,24.6-.4.8-.6,1.7-.9,2.5.8-.4,1.1-.9,1.4-1.4,2.9-5.3,5.6-10.6,8.7-15.8,5-8.5,11.5-15.7,20.5-20.3.5-.3,1-.7,1.8-1.4-1.8-.8-3.2-1.6-4.6-2.2-3.1-1.1-5.4-3.1-7.2-5.6-9.1-12.2-9.9-30.1-1.4-42.6,6.2-9.1,15.2-12.9,26.2-9.6,9.5,2.9,15.6,11.3,16.2,21.4.5,7.5-1.5,14.2-4.8,20.7-1.7,3.2-2.7,6.2-1.3,9.7.4.9.2,1.9.4,2.9.5,3,1.8,5.5,4.6,6.9.6.3,1.2.8,1.9,1.4-3.9,0-7.5-.2-11.1,0-9.4.5-17,4.5-22.2,12.3-3.7,5.6-5.2,12-5.5,18.6-.3,5.7,1,11.3,2.4,16.8,1.7,6.5,5.4,11.3,11.2,14.6,1,.6,2,1.6,2.6,2.7.8,1.6,1.2,3.4,1.8,5.3-2.5,3-4.9,5.8-7.3,8.7-2,2.3-4.2,4.1-7.3,5-2.3.7-4.5,1.9-6.6,3.3-4.9,3.1-8.7,7.3-10.4,13-1.2,4-2,8.1-.3,12.3.9,2.2,1,4.6-.2,6.8-1.1,1.9-.9,3.9-.5,6,.8,3.4,1.6,6.9,2.6,10.3,1.7,5.9,4.8,11.9,10.2,13.5.7.2,1.3.3,1.7.3.3,2.1.5,4.2.8,6.3-.8.8-1.6,1.7-2.4,2.5-2.5,2.6-5.2,5.1-7.6,7.9-4.7,5.4-7.4,12.1-10.1,18.6-3.3,7.9-6.1,16-9.2,24-.5,1.3-.8,2.6-1.2,3.8.2,0,.4.1.6.2.6-1.5,1.2-2.9,1.8-4.4,4.2-10.5,8.6-20.8,14.1-30.6,2.5-4.5,5.6-8.5,9.5-12.1,2.8-2.6,5.3-5.6,8.2-8.8-.5-3.4-1-6.8-1.5-10.2-.8-.2-2-.6-3.4-1.2-1.7-.7-3.2-1.3-4.4-2.5-1.1-1.1-2-2.4-2.6-4-1.3-3.4-2.6-6.8-3.4-10.4-.8-3.6-1.3-7.4-.3-11.1.6-2,.3-4-.3-6-.5-1.8-1-3.9-.7-5.7,1.6-8.1,6.1-13.8,14-16.7,5.4-2,11-1.7,16.5-.2,13.3,3.5,21.2,17.6,17.2,30.7-.3,1.1-2.2,5.4-5.9,13.9-1.4,3.1-2.5,5.6-3.2,7.2,1.9.8,4.7,2,8.1,3.6,3,1.4,4.5,2.1,5.6,2.7,2.5,1.4,5.9,3.9,9.3,8.7-1.3-5-3.8-7.6-5-8.7-1.3-1.2-2.8-2.1-3.5-2.4-2.2-1.3-3.4-1.6-6.4-3-1.1-.5-2.8-1.3-4.8-2.4.4-1.1,1-2.9,2-4.9,1.3-2.9,2.5-4.9,2.8-5.5,3.5-6.6,5.3-13.5,4.7-21-.7-7.9-3.9-14.3-10.4-19.1-3.9-2.9-8.3-4.3-13-5.3-.9-.2-2,0-2.5-1.4,2.1-2.6,4.2-5.3,6.5-7.9,1.2-1.4,2.3-2.9,1.8-4.9-.9-3.1-1.8-6.1-2.6-9-1.7-.8-2.9-1.4-4.2-1.9-4.9-2-7.8-5.9-9.3-10.8-2.9-10-2.7-19.9,1-29.6,2.1-5.5,6-9.6,11.5-12,5.6-2.4,11.4-3,17.3-1.4,4.3,1.2,8.3,3.2,11.3,6.5,6.6,7.4,7.9,16.1,6.2,25.6-1.1,5.9-3.8,11.1-7.1,16.1-.4.6-.7,1.2-1.1,2,1.4.4,2.5.7,3.7,1,5.1,1.2,9.1,3.7,11.1,8.8.5,1.3,1.2,2.5,1.7,3.8,3.1,8.1,5.3,16.5,6.3,25.2,1,8.7,2.2,17.4.9,26.2-.1.8,0,1.7,0,2.5.2,0,.4,0,.6,0,2.2-11.3,4-24.4,4.7-39,.7-14.9.2-28.3-.9-39.8,6.9-7.1,13.7-14.2,20.6-21.4Z"/>
      <path class="cls-2" d="m273.8,144.1s0,0,0,0c0,0,0,0,0,0h0Z"/>
      <path class="cls-2" d="m222.3,254.7c0,0,.1,0,.2,0,0,0,0,0-.1-.1h0Z"/>
      <path class="cls-2" d="m217.2,128s0,0,0,0c0,0,0,0,0,0h0Z"/>
      <path class="cls-2" d="m209.5,320.3s0,0,0,0c0,0,0,0,0,0,0,0,0,0,0,0Z"/>
    </g>
    <g>
      <path class="cls-2" d="m279.6,570c-10.3-15.3-24.7-33.7-44.5-51.9-14-12.8-27.6-22.8-39.8-30.5,28.1,27.5,56.2,54.9,84.3,82.4Z"/>
      <polygon class="cls-2" points="195.3 487.6 195.3 487.6 195.3 487.6 195.3 487.6"/>
    </g>
    <path class="cls-2" d="m333.8,571.5c0-.5-.2-1-.2-1.5.3-8,1.8-15.8,6.3-22.6,4.2-6.2,9.5-11.3,17-13.5,3.2-.9,6.3-2,8.9-4.3.3-.3.7-.4,1.6-.7,0,1,.2,1.7,0,2.3-1,2.5-2.9,4.2-5.4,5.2-1.9.7-3.9,1.3-5.8,1.8-9.1,2.7-14.3,9.3-17.9,17.6-2,4.6-3.4,9.5-4,14.5,0,.4-.2.8-.2,1.2-.1,0-.2,0-.3,0Z"/>
    <path class="cls-2" d="m670.5,529.3c.5.5,1.3,1.2,2.2,1.9,4.5,3.5,8.6,4.5,11,5.4.6.2,8.8,3.2,14.2,10.3,4.1,5.4,5.1,11.3,5.8,14.9.7,3.8.7,7,.6,9.2-.3-1.2-.6-2.4-.8-3.6-.5-3-1.3-6-2.3-8.8-.5-1.3-2-6.1-5.3-10.4-4.3-5.5-10-8.3-12.5-9.5-5.3-2.5-10.2-3.2-12.3-7.6-.3-.7-.5-1.3-.6-1.7Z"/>
    <path class="cls-2" d="m609,588.6c0,.7,0,1.5-.1,2.2-1.9,8.8-3.6,17.6-7,26-.6,1.4-1.3,2.7-2,4-.1.2-.5.3-1.1.8.9-3,1.7-5.5,2.4-8,2-6.9,4-13.8,6.1-20.6.5-1.5,1.2-3,1.8-4.4h0Z"/>
    <path class="cls-2" d="m559.6,241.4c-.9-13.7-1.8-27.3-2.7-41,.2,0,.5,0,.7,0,1.3,13.6,3.2,27.2,2,41Z"/>
    <path class="cls-2" d="m481.6,199.3c-.9,14.1-1.8,27.7-2.7,41.2-1.4-4.7.4-35.6,2.7-41.2Z"/>
    <path class="cls-2" d="m674.6,318.4c-.2.9-.4,1.7-.6,2.6,0,0,0,0,0,0,.2-.9.4-1.7.6-2.6h0Z"/>
    <path class="cls-2" d="m609,588.6c.2-.6.4-1.3.6-1.9h0c-.2.6-.4,1.3-.6,1.9h0Z"/>
    <path class="cls-2" d="m674,320.9c0,.2-.1.3-.2.4,0,0,.1-.2.2-.4h0Z"/>
    <path class="cls-2" d="m363.9,321c0,.2.2.3.2.3,0,0,0-.2-.1-.3h0Z"/>
    <path class="cls-2" d="m465.5,662.6c.1.1.2.3,0,0,0,.2,0,0,0-.1h0Z"/>
    <path class="cls-2" d="m609.7,586.7h0s0,0,0,0Z"/>
    <polygon class="cls-2" points="819.4 200.7 819.5 200.6 819.4 200.7 819.4 200.7"/>
    <path class="cls-2" d="m222.4,254.7h0s0,0,0,0Z"/>
    <path class="cls-2" d="m209.5,320.3h0s0,0,0,0Z"/>
    <polygon class="cls-2" points="251.3 483.1 251.2 483.2 251.3 483.1 251.3 483.1"/>
    <path class="cls-2" d="m831,573.8h0s0,0,0,0Z"/>
    <path class="cls-2" d="m830.9,573.8c-.2.2-.4.4-.7.7h0c.2-.2.4-.4.7-.6,0,0,0,0,0,0Z"/>
    <path class="cls-2" d="m574.8,611.5c1.9,8.3,3.2,16.7,4.1,25.2,1.3,8.5.5,17.4-3.8,25,3.1-8,3.5-16.5,2.2-24.9-.8-7.5-2-18-2.6-25.4h0Z"/>
    <path class="cls-2" d="m464,611.5c-.1,8.4-.7,16.8-1.4,25.3-1,8.4-.7,16.7,1.2,25-3.2-7.9-3.7-16.7-2.8-25.1.8-8.4,1.6-16.8,3-25.1h0Z"/>
    <g>
      <path class="cls-2" d="m430.1,589.5c1.2,5.1,2.6,10.4,4,15.8,1.5,5.6,3.1,10.9,4.7,16.1"/>
      <path class="cls-2" d="m430.1,589.5c2,5.2,3.5,10.5,4.9,15.8,1.5,5.3,2.9,10.6,3.8,16.1-4.2-10.2-7.1-21-8.7-32h0Z"/>
    </g>
    <path class="cls-2" d="m747.1,588.7c20.2-34.8,51.7-65,87.4-83.7-15.3,13.4-30.5,26.4-45,40.4-14.7,13.9-28.3,28.6-42.3,43.2h0Z"/>
  </g>
</svg>