<?xml version="1.0" encoding="UTF-8"?>
<svg id="Layer_1" data-name="Layer 1" xmlns="http://www.w3.org/2000/svg" width="1024" height="768" xmlns:xlink="http://www.w3.org/1999/xlink" viewBox="0 0 1024 768">
  <defs>
    <style>
      .cls-1 {
        fill: none;
      }

      .cls-1, .cls-2, .cls-3, .cls-4, .cls-5 {
        stroke-width: 0px;
      }

      .cls-2 {
        fill: #051e2b;
      }

      .cls-6 {
        clip-path: url(#clippath-1);
      }

      .cls-7 {
        clip-path: url(#clippath);
      }

      .cls-3 {
        fill: #0c1a22;
      }

      .cls-4 {
        fill: #ed3737;
      }

      .cls-5 {
        fill: #ffdbbb;
      }
    </style>
    <clipPath id="clippath">
      <path class="cls-1" d="m748.6,614.9c-6.8,3.2-14.1,4.8-21.6,2.8-27.3-7.1-54.5-14.3-81.8-21.5-.8-.2-1.6-.7-2.6-1.1.3-3.3.6-6.5.9-9.7-3.7-1.3-6.9-3.4-11-2.4-1.3.3-2.8.3-4.1-.1-9.8-2.9-19.6-5.9-29.4-9.1-3.6-1.2-5.3-4.3-5.2-8.1,0-1.6.4-3.1.6-4.9-4.7-4.6-2.7-9.1,1-13.4-2.8-2.4-4.2-5.5-2.6-8.4,1.5-2.6,4.4-4.3,7-6.6-4.7-2.2-9.4-4.5-14.2-6.9-3.9-2-7.7-4-11.4-6-.2-.3-1.5-2.5-.7-4.9.3-.7.7-1.4,1.5-2.1.8.2,1.6.4,2.3.6,12.7,4,25.4,8.1,38.3,11.8,5.6,1.6,10.4,4,14.4,8.1,4,4.2,8.3,8.3,11.8,12.8,2.9,3.7,6.6,3.9,10.3,4.5,1.1-1.5,2-2.7,3-4.1,22.1,4.7,43.8,10.7,66.3,13,1.6-3.8,3-7.3,4.4-10.8-1.2.4-2,1.1-2.4,1.9-2.1,4.2-5.7,4.9-9.9,4.3-9-1.3-18.1-2.5-27.1-4-4.3-.7-8.5-1.8-12.8-2.8-.1-.4-.2-.8-.3-1.1,2.8-1.3,6.4-3.5,10.1-6.8,3.2-2.9,5.6-5.8,7.1-8.2,8.9-12.6,12.8-23.8,16.5-31.2,1.6-3.1,2.7-6.6,3.4-10,1.9-9.6,5.1-18.7,10.1-27.2.5-.9.9-1.8,1.3-2.8-1.6-2.3-3.1-4.4-4.8-6.8,3.6-4.4,7-8.7,10.7-13.3-3.1-2.6-6.1-5-9-7.6-1.8-1.6-3.6-2.1-5.9-1.7-5.4.9-10.8,1.8-16.3,2.1-6.7.3-9.3-2.6-9.7-9.2,0-1.2,0-2.9-.7-3.6-2.9-2.8-3.3-5.8-1.2-9.3-5.7-1.9-6-6.2-5.2-11-2.3-.4-4.2-.8-6-1.1-5.4-.9-7.1-3.2-5.1-8.3,1.9-5,4.5-9.7,6.8-14.6.6-1.2,1.1-2.4,1.7-3.9-4-2.2-3.8-5.6-3.2-9.1.7-3.9,1.5-7.8,2.3-11.8.3-1.8.7-3.5,1-5.1-2.5-2-4.8-3.5-6.7-5.4-4.2-4.3-3.7-9,1.1-12.6,1.2-.9,2.8-1.5,3.3-1.7,1-.4,1.9-.7,2.6-.9,3-1.7,6-3.5,8.9-5.2.9-1.2,1.9-2.4,2.8-3.6,44.8-52,89.6-104,134.4-156-53.7,50.3-107.4,100.6-161.1,150.9-8.9-6-17.6-11.9-26.7-18,44.7-57.3,89.5-114.7,134.2-172-51.6,53.9-103.3,107.7-154.9,161.6-10.3-4-20-7.7-30.1-11.7,38.9-55.6,77.9-111.1,116.8-166.7-45.3,54-90.5,107.9-135.8,161.9-6.9-1.2-14.4-2.2-22.3-3-7.7-.8-15.1-1.2-21.9-1.4,24.9-44.4,49.8-88.8,74.7-133.2-30.4,44.5-60.8,88.9-91.2,133.4-7.5.5-15.6,1.3-24.3,2.7-8.2,1.3-15.7,2.9-22.6,4.6,18.8-36.2,37.5-72.3,56.3-108.5-24.3,37.7-48.6,75.3-72.9,113-4.9,1.8-10,3.7-15.3,5.8-6.4,2.6-12.4,5.2-18.1,7.9,11.7-25.9,23.4-51.7,35-77.6-16.2,28.1-32.3,56.2-48.5,84.3-13.8,6.7-28.3,16.7-39.7,31.9-.9,1.3-1.9,2.5-2.7,3.8l-1.7,3.1c0,0,.1.1.2.2,1.2,1,1.8,2.3,1.8,2.3.5.9.7,1.9.8,2.5.2,2.1-1.7,4.5-4.5,5.9.8,4.7,1.8,9.4,2.5,14.2.8,5.3,1.2,10.5-3.4,14.6-.1.1-.1.4-.2.9.5,1.1,1.2,2.5,1.8,3.8,2,4.2,4.2,8.4,6,12.7,2.2,5.2.4,8.1-5.1,9-1,.2-2,.4-3.1.6-.2,1.2-.2,2.3-.4,3.2-1.2,3.9-1.7,8.2-3.8,11.5-2.1,3.3-2.9,6.5-3,10.3,0,5.7-2.2,7.8-7.9,8.9-5.6,1-10.9-.3-16.3-1.1-1.8-.2-4.1-.6-5.3.3-4,3-7.6,6.5-11.4,9.8.6,1.4.9,2.5,1.4,3.5,7.1,13.4,11.2,27.7,14.1,42.5.7,3.7,1.9,7.3,3.4,10.7,2.6,5.9,5.6,11.5,8.4,17.3.6,1.1,1.2,2.5,2.2,3,5,2.6,9.1,6.1,10.8,10.9,3.6.7,6.5,1.1,9.3,2,2.9.9,5.7,2.4,8.5,3.5,5.1,1.9,10.2,3.7,15.4,5.6.6.2,1.2.5,1.9.8-6.8,4.3-11.3,10.3-11.1,15.2.7-1,1.3-1.8,1.9-2.6,2.9-3.7,6.4-6.5,11-7.8,5.9-1.7,11.6-1.9,15.5,4.1,0,0,.4-.1.6-.2-.7-4.7-4.3-6.6-8.1-8.5,3.2-4.7,7.3-8.2,12.7-6.6,4.6,1.4,9,1.2,13.6,1.3,3.6,0,5.5,2.9,4.7,6.3-.1.6-.3,1.3-.4,1.9,8.9,5.9,8.5,8.7,5.8,14.4,5.7,7.3,5.6,9.7-.5,15,2.3,6.4,1.3,8.8-4.9,12-.7.3-1.3.9-1.8,1.5-2.8,3.8-6.9,5-11.4,5.4-1.5.1-3.1-.1-4.4.4-5.7,2.3-11.3,4.8-17.1,7.4-.3,1.4-.6,3-1,4.7-.7.2-1.2.4-1.7.6-8.6,2.2-17.2,4.5-25.9,6.5-16.7,3.8-33.3,7.8-50.2,10.8-10,1.8-19-1.3-25.1-10.3-.7-1-1.4-1.9-2.1-2.9-.4.5-.5.9-.4,1.1.6,1.1,1.2,2.2,1.9,3.3,4.5,6.7,11.4,10.5,18.3,13.9,13.8,6.8,28.6,10.8,43.5,14.4,37.4,9,75.5,13.6,113.8,16.3,17.1,1.2,34.3,1.7,51.4,1.9,24.5.2,48.9-.3,73.3-2.4,11.8-1,23.7-1.7,35.5-3.1,15.2-1.9,30.3-4,45.4-6.6,21.2-3.6,42.1-8.6,62.1-16.6,12.1-4.8,23.7-10.4,32.6-20.3.9-1,1.8-2.1,2.7-3.2-.2-.2-.3-.3-.5-.5-2.1,1.7-3.9,3.8-6.3,4.9Z"/>
    </clipPath>
    <clipPath id="clippath-1">
      <path class="cls-1" d="m314.4,524.8c65.8-13.9,131.9-25.4,197.6-39.3l-87-208.8c-27.5,13.6-55.1,27.2-82.6,40.7-9.2,69.9-18.9,137.4-28.1,207.4Z"/>
    </clipPath>
  </defs>
  <rect class="cls-3" width="1024" height="768"/>
  <g>
    <g>
      <g>
        <path class="cls-4" d="m770.3,360c.1,5,0,10.3-.6,15.8-.1,1.1-.2,2.2-.4,3.2,22.8-22.4,45.7-44.8,68.5-67.1-22.5,16-45.1,32.1-67.6,48.1Z"/>
        <path class="cls-5" d="m724.7,489.3c0,1,0,2,0,3,.4,0,.7,0,1.1.1,5.2-24.3,13.9-47.3,26.5-68.6-7.7,7.9-15.5,15.9-23.2,23.8-.3-.2-.5-.4-.8-.6.3,1.7.6,3.4.8,5,.7,4.4,1.2,8.7-.4,13.1-2.8,7.8-3.5,16-4,24.2Z"/>
        <path class="cls-5" d="m239.6,405.9c-1,1.6-2.1,3.2-3.4,4.5-7.2,6.6-14.8,12.7-21.6,19.6-12.7,12.9-22.5,27.9-28.9,44.9-.3.9-.6,1.8-.8,2.7l.6.2c.5-1,1-2,1.5-3,1.9-3.6,3.6-7.4,5.7-10.9,9.9-16.9,22.8-31.1,38.1-43.2,5.4-4.3,11.1-8.2,14-15.1,1.2-2.9,3.9-5.2,6.2-8.1-1.7-.7-3.1-1.2-5.4-2.2-2,3.6-3.9,7.1-6,10.5Z"/>
        <path class="cls-4" d="m786.5,412.2c2.1,1.7,4.2,3.3,6.3,5,15.4-11.6,30.9-23.3,46.3-34.9-17.5,10-35.1,20-52.6,29.9Z"/>
        <path class="cls-5" d="m792.8,417.2c-2.1-1.7-4.2-3.3-6.3-5-2.9-2.1-5.7-4.3-9-6.8.4,2.4.6,4.3.9,6.4,16.5,11.8,32.6,24.1,44.8,40.8.3-.3.7-.6,1-.9-4.6-5.9-8.9-12.1-14-17.6-5.4-6-11.6-11.3-17.4-16.9Z"/>
        <path class="cls-5" d="m353.4,562.6c-8.4.7-16.8,1.3-25.2,2-4,.3-8,.7-12.4,1.2.6,1.5,1,2.4,1.5,3.6,15.2-1.2,30-2.3,44.6-3.5-2-3-3.8-3.7-8.4-3.3Z"/>
      </g>
      <path class="cls-4" d="m749.2,312.1c1.6,1.2,3.4,2.6,5.2,4.3,1.6,1.5,3,3.1,4.1,4.5,25.8-27.3,51.6-54.5,77.4-81.8-28.9,24.3-57.8,48.7-86.8,73Z"/>
      <g class="cls-7">
        <rect class="cls-4" x="124.4" y="119" width="795.1" height="591.4"/>
        <g>
          <circle class="cls-2" cx="512" cy="485.5" r="152.3"/>
          <path class="cls-4" d="m506.5,487.8s-43.5-120.1-43.5-120.1c0,0,54.6,115.5,54.6,115.5,3.2,7.7-7.9,12.3-11.1,4.6h0Z"/>
          <g class="cls-6">
            <path class="cls-5" d="m512,356c34.6,0,67.1,13.5,91.5,37.9s37.9,57,37.9,91.5-13.5,67.1-37.9,91.5c-24.5,24.5-57,37.9-91.5,37.9s-67.1-13.5-91.5-37.9c-24.5-24.5-37.9-57-37.9-91.5s13.5-67.1,37.9-91.5,57-37.9,91.5-37.9m0-20c-82.5,0-149.5,66.9-149.5,149.5s66.9,149.5,149.5,149.5,149.5-66.9,149.5-149.5-66.9-149.5-149.5-149.5h0Z"/>
          </g>
        </g>
        <ellipse class="cls-5" cx="516.2" cy="586.8" rx="280.6" ry="79.1"/>
      </g>
      <path class="cls-5" d="m695.6,313.4c-8.4,3.2-11.5,5.3-13.7,7.3-2.3,2.1-5.3,5.4-4.7,6.3.4.5,1.8.2,7.6-2.1,6.8-2.8,9.7-4.3,13.8-5.9,5.7-2.4,10.3-3.6,12.6-4.2,5.2-1.4,9.4-2.5,14.8-2.7,4.5-.2,11.6-.4,19.6,3.1,1.3.6,7.8,3.6,13.8,10.4,3.5,4,5.6,7.9,6.8,10.7-.4-1.8-1.1-4.2-2.1-6.8-.7-1.8-2.1-5.1-4.6-8.6-2.1-2.9-4.9-6.9-9.8-9.1-1.4-.6-3-1.2-5.2-1.9-.8-.3-3.6-1.2-6-1.8-4.7-1.2-8.6-1.2-11.4-1.2-7.2,0-12.6,1.2-17.2,2.2-6.1,1.4-10.5,3-14.3,4.4Z"/>
      <path class="cls-5" d="m342.7,320.8c-4.6-3.2-10.6-7.3-20.1-10.7-5.7-2.1-10.2-3.1-11.6-3.4-5.6-1.2-11.3-1.7-17.3-1.7-27.2.3-42.2,23-44.8,39.9-1.6,10.3.9,22.2,2.5,29.5,1.1,4.9,2.3,8.8,3.2,11.6-2.6-12.6-2.5-22.9-1.9-29.8.4-4.9.8-9.7,2.9-15.6,1.8-5.3,5.2-14.8,14.4-21.6,3.4-2.5,7.4-4.4,12.1-5.6,10.8-2.8,19.8-1.4,27.1,0,10.5,1.6,26.4,5.8,39.4,18.5,1.8,1.7,3.4,3.5,4.9,5.3,0-1.9-.4-4.7-1.9-7.7-1.4-2.8-3.4-4.9-8.9-8.7Z"/>
    </g>
    <g>
      <rect class="cls-2" x="450" y="463.9" width="124" height="55.5" rx="17.3" ry="17.3"/>
      <g>
        <path class="cls-5" d="m473.5,475.2v33.4h-5.5v-27.2l-4.4,2.2v-5.8l4.9-2.7h5Z"/>
        <path class="cls-5" d="m490.4,509c-3.2,0-5.7-.9-7.3-2.6-1.6-1.7-2.4-4-2.4-6.9v-15.2c0-3,.8-5.3,2.5-7,1.6-1.7,4.1-2.5,7.3-2.5s5.7.8,7.3,2.5c1.6,1.7,2.5,4,2.5,7v15.2c0,3-.8,5.3-2.5,7-1.6,1.7-4.1,2.5-7.3,2.5Zm0-5.3c1.5,0,2.6-.4,3.3-1.3s1-2.1,1-3.7v-13.6c0-1.6-.3-2.8-1-3.7-.7-.9-1.8-1.3-3.3-1.3s-2.6.4-3.3,1.3c-.7.9-1,2.1-1,3.7v13.6c0,1.6.3,2.8,1,3.7.7.9,1.8,1.3,3.3,1.3Z"/>
        <path class="cls-5" d="m504.5,490.4v-5.6h5.6v5.6h-5.6Zm0,18.3v-5.6h5.6v5.6h-5.6Z"/>
        <path class="cls-5" d="m524.2,509c-3.2,0-5.7-.9-7.3-2.6-1.6-1.7-2.4-4-2.4-6.9v-15.2c0-3,.8-5.3,2.5-7,1.6-1.7,4.1-2.5,7.3-2.5s5.7.8,7.3,2.5c1.6,1.7,2.5,4,2.5,7v15.2c0,3-.8,5.3-2.5,7-1.6,1.7-4.1,2.5-7.3,2.5Zm0-5.3c1.5,0,2.6-.4,3.3-1.3s1-2.1,1-3.7v-13.6c0-1.6-.3-2.8-1-3.7-.7-.9-1.8-1.3-3.3-1.3s-2.6.4-3.3,1.3c-.7.9-1,2.1-1,3.7v13.6c0,1.6.3,2.8,1,3.7.7.9,1.8,1.3,3.3,1.3Z"/>
        <path class="cls-5" d="m549.3,509c-3.2,0-5.7-.9-7.3-2.6-1.6-1.7-2.4-4-2.4-6.9v-15.2c0-3,.8-5.3,2.5-7,1.6-1.7,4.1-2.5,7.3-2.5s5.7.8,7.3,2.5c1.6,1.7,2.5,4,2.5,7v15.2c0,3-.8,5.3-2.5,7-1.6,1.7-4.1,2.5-7.3,2.5Zm0-5.3c1.5,0,2.6-.4,3.3-1.3s1-2.1,1-3.7v-13.6c0-1.6-.3-2.8-1-3.7-.7-.9-1.8-1.3-3.3-1.3s-2.6.4-3.3,1.3c-.7.9-1,2.1-1,3.7v13.6c0,1.6.3,2.8,1,3.7.7.9,1.8,1.3,3.3,1.3Z"/>
      </g>
    </g>
  </g>
</svg>