<?xml version="1.0" encoding="UTF-8"?>
<svg id="Layer_1" data-name="Layer 1" xmlns="http://www.w3.org/2000/svg" width="1024" height="768" viewBox="0 0 1024 768">
  <defs>
    <style>
      .cls-1 {
        fill: #ed3737;
      }

      .cls-1, .cls-2 {
        stroke-width: 0px;
      }

      .cls-2 {
        fill: #ffdbbb;
      }
    </style>
  </defs>
  <path class="cls-2" d="m695.9,440.9c-3.3,2.6-6,4.9-8.9,7.1-13.9,10.3-29.3,18-45.4,24.1-19.9,7.5-40.4,13.1-61.4,16.5-8.8,1.4-17.6,2.9-26.5,3.9-7.4.8-14.9,1-22.4,1.6-14.2,1.1-28.3.8-42.5.5-9.2-.2-18.3-1.1-27.4-1.8-6.3-.5-12.6-1.3-18.9-2.1-11.9-1.4-23.7-3.5-35.4-6.2-17.4-4-34.5-9-51.1-15.7-13.6-5.5-26.7-11.8-38.4-20.7-2.9-2.2-5.6-4.5-8.9-7.2,17.5-4.8,33.8-11.7,51.3-14.6.7-.8,1.3-1.6,2.3-2.7v-5c4.8-1.2,9.5-2.2,13.1-5.7,4.8-.2,8.2-2.7,10.7-6.7,1.6-2.5,3.3-4.9,4.8-7.4.5-.8,1.1-1.6,1.1-2.4,0-3.9.1-8-.7-11.8-.6-3-2.4-5.8-4.1-8.4-1.8-2.9-4.8-4-8.1-3.9-.1-1.6.2-3.4-.5-4.4-.8-1.3-2.5-2.2-3.9-3-3.1-1.6-6.6-1.5-10-1.2-2.9.2-5.9.7-8.8.5-4.1-.3-7.3.9-9.9,4-1.9,2.2-2,2.1-4.3,2.1-.6-.6-1.2-1.2-1.8-1.9-1.5-1.9-3.5-2.6-5.9-2.7-8.8-.7-17.5-2-26.1-4.2-.2,0-.3-.3-.6-.6,8.9-6.6,18.5-11.8,28.2-15.8,15.9,2.4,31.2,6.3,47.2,6,.7-1.3,1.4-2.6,2.2-4,3.1.5,6.3.8,9.3,1.5,6.3,1.3,12.4,1,18.3-1.5,1.6-.7,3.2-.6,4.9-.2,3.5.7,7.1,1.2,10.7,1.5,2.6.3,5.2,0,7.1-2.1h3.5c2.1-1.7,3.9-3.2,5.7-4.7-.7-6.4-6.2-8.9-10.2-12.8.7-1.6,2.2-2.6,3.4-3.7,1.1-1.1,2.4-2,4-3.3,5.7-.7,11.7-1.4,17.8-2.1,6.6-.7,13.3-1.5,19.9-1.9,10.1-.5,20.2-.6,30.2-.8,6.2-.1,12.5-.1,18.7,0,6.8.2,13.6.7,20.4,1.1,4.3.3,8.6.5,12.9.9,4.7.4,9.4,1.1,14.1,1.6.3,0,.7.2,1,.2,5.6-.2,10.2,2.5,14.7,5.2,2.7,1.6,5.5,3,8.3,4.6,4.5-1.3,8.8-2.7,13.1-3.8,1.1-.3,2.5-.3,3.6,0,11.6,3,23,6.6,34.2,10.7,1.8.7,3.6,1.3,5.4,2,2,.8,4.1,1.3,6,2.4,1.8,1.1,3.3,2.7,5,4.2,0,.4.2.8.2,1.2,0,3.2,1.6,5.6,4,7.5,6.5,5,14,7.8,21.9,9.6,1.6.4,3.3.6,5,.8,3.9.5,4.5.8,7.7,3.5.1.9.2,1.9.4,3.1,7.7,6.5,11.7,15.3,13.7,25.5-1.1,0-1.7.1-2.3,0-13.6-2.9-27.1-6-40.7-8.9-5.2-1.1-10.4-1.8-15.3-2.6-8,9.3-11,20.3-13.9,31.6-1.2-.6-2.1-1-3.3-1.6.5-10.2,2.7-19.8,8.5-28.6-1.3-1.5-2-3.4-2.4-5.6-.4-2.3-1.1-4.6-1.9-6.8-1.1-3.4-3-6.3-5.5-8.8-2.3-2.2-4.5-4.5-6.8-6.7-3.4-3.1-6-6.7-7.6-11.1-.8-2.3-2.1-4.3-4.7-4.8-4.5,1.1-6.3,3.2-6.4,7.8,0,3.1,1,6,2.3,8.8,1,2,2.2,3.9,3.3,5.9.5.8.9,1.7,1.6,3.3-4.2-.9-7.7-1.5-11.1-2.5-7.1-2-14.1-4.1-21.1-6.3-2.1-.6-4.1-1.3-6.3-.6-3.1,2.8-2.9,7.4.5,10.3,1.5,1.2,3.2,2.2,4.8,3.2,1,.7,2.1,1.3,3.4,2-.7,4.4.8,8,4.3,10.7-1.6,3.8.5,6.6,2.5,9.4.5,7.6,5,12.2,11.7,14.7,4.8,1.8,9.9,3,15,4.1,3.8.9,7.8,1.2,12,1.8.1,1,.3,2.2.5,3.3,1.2,2.4,3.7,2.4,5.9,3.4.3,1.6.7,3.4,1.1,5.6,15.6,4.2,31.4,8.5,47.8,12.9Z"/>
  <path class="cls-1" d="m319,236.7c-2.3,2.8-5.4,1-7.9,1.9-1.8,1.1-1.3,2.8-.7,4.2.6,1.4.4,2.6-.5,3.8-.8.4-1.7.8-2.7,1.3.9,1,1.6,1.8,2.4,2.8-.7.7-1.3,1.4-1.9,2.1-1.3,1.6-2.1,3.2-1.3,5.3.4,1,.4,2.2.4,3.3,0,3.9-1.8,5.9-5.7,6.1-1.9,0-3.9-.1-5.7-.6-6.1-1.5-11.7-4-16.4-8.5-2.8-2.7-4.5-5.9-4.8-9.8,0-1-.3-2-.5-3.2-3.1-1-6.2-2.1-8.3-4.8-3.6-4.5-6.1-9.5-6.1-15.4,0-5.2,4.5-8.4,9.5-7.2,2.9.7,5.1,2.5,7.1,4.4,2.2,2.1,4.6,3.3,7.8,2.4.2-.4.7-.8.9-1.3,1.3-4.6,2.7-9.1,3.6-13.7.4-1.8-.4-4-1-5.9-.5-1.5-1.5-2.8-2.2-4.2-2-3.8-4-7.6-5.9-11.4-.8-1.6-1.5-3.3-2.3-4.9-2.6-4.8-6.7-7.3-12-7.6-11.4-.7-21.4,2.7-29.4,11.2-4.4,4.7-6.7,10.4-7.6,16.7-1,6.8,0,13.5,1.1,20.2-.3-1.2-.7-2.5-1-3.7-.4-1.4-.7-2.8-1-4.3-.3-1.4-.5-2.9-.6-4.4-.3-5-.3-10,1-14.8,3.8-14.4,13.5-22.9,27.6-26,15.2-3.3,29.2,0,41.5,9.6,8.5,6.6,13.4,15.1,13.9,26.1,0,.3,0,.7,0,1,1.1,3.4.8,6.7-1,10.1.9,1.4,1.8,2.8,2.8,4.1,3.1,4.1,5.3,8.7,6.8,13.6.1.4,0,.9.1,1.4Zm-44.8-1.5l-.6-.9c-.2-2.1-.3-4.2-.5-6.3-.4-3.6-2.5-6.3-6.3-6.4-2.2.9-3.2,2.7-2.7,5,.5,2.5,1.4,5,2.4,7.3.8,1.9,2.5,3.1,5.5,3.5.5-.5,1.4-1.3,2.3-2.2Zm31.4-12.4c.8-2.2,4-3.5,2.4-6.6-3.3,1.1-4.2,2-5.8,5.1.6,1.3,1.2,2.5,3.4,1.5Z"/>
  <path class="cls-1" d="m418.6,154.9c2,3.5,4.2,6.9,4.7,10.9.3,2.3.7,4.8.4,7-.3,2.3,0,4.3.9,6.2,1.9,3.9,4.1,7.8,6.3,12-2,1.4-4.4,3-7.1,4.8v5.9c-2.8,2.6-6.4,1.1-9.3,2.5,1.5,2.7,4.5,2.6,6.2,3.9,1,2.3-1.3,2.5-1.9,3.8,0,1.4.2,2.9.2,4.3,0,2.8-1.4,4.2-4.2,4.2-2.1,0-4.3-.5-6.3-1.1-6-1.8-11.2-5.2-16.5-8.5-1-.6-2-1.3-3.5-2.2.7,6.7,1.9,12.9,1.8,19-.1,6-1.5,12-2.5,18.8,2.6-2.6,4.7-4.7,6.9-7,1.7,6.5,1.8,24.5.1,47.8-6.4-24.9-15-48.9-27.1-71.9,5.9-4.5,8.6-11,10.3-18.2,1.9.2,3.8.4,5.9.6.4-1.2.8-2.2,1.3-3.6-1.3-.3-2.4-.8-3.6-.9-2.1-.2-3.7-1.2-4.8-2.8-2.1-2.9-3.2-6.2-3-9.9s.9-3.9,3-5c2.2-1.1,4-.2,5.7,1.1,1.8,1.3,2.7,3.3,3.3,5.4.4,1.5.8,3.1,3.1,3.8,1.1-.6,2.5-1.2,3.8-2.1,5.7-4.2,10.8-8.9,15.3-14.4,2.4-2.9,4.8-5.7,7-8.7,1.3-1.8,2.3-3.9,3.5-6Zm4,16.1c-2.4.7-4.3,1.1-6.2,1.8-3.3,1.2-4,1.8-4.6,3.5,3.5-.9,7.1-1.9,10.7-2.9v-2.4Zm-3.2,8.2v-3.6c-2.5.7-4.4,1.7-5.8,3.7,1.3.5,2.5,1,3.8,1.5.5-.4,1.1-.9,2-1.5Z"/>
  <path class="cls-1" d="m796.3,171.9c-13.8-5.5-27-5.3-40.3-1.8-3.1.8-6.1,1.8-9.1,2.6-3.3.8-6.6,1.3-9.9,1.9-1.2.2-2.4.5-3.5.7-1.9,6,.5,12.1,5.9,15.4,1.6,1,3.5,1.6,5.2,2.5,1.6.8,3.1,1.7,4.8,2.7-.3,1.4-.5,2.5-.9,3.5-.4,1.3-1.1,2.5-1.6,3.8-.9,2.9-.8,5.8.9,8.5.6,1,1.2,1.9,2,2.8,2.5,3,4.1,6.2,3.5,10.3,0,.4,0,.9,0,1.6,2.6,1.7,5.4,2.4,8.4,2.3,1.9-1.7,2.5-3.9,3.5-5.9.9-1.9,1.9-3.9,3.4-5.4,3.6-3.4,8.2-1.7,9.1,3.2,1,5.9,0,11.6-3.3,16.6-1.5,2.3-3.9,3.9-6.5,6.5-.3,1.6-.7,4-1.1,6.4-.7,4-2.5,7.5-5.3,10.4-3.5,3.7-7.5,6.9-12.2,9-1,.5-2.1.7-3.2,1.1-2.9.9-5.1.2-7-2.9,0-1,0-2.6,0-4.2.1-2.7-.8-4.6-3.3-5.8-.4-.2-.8-.5-1.2-.8v-2.7c.9-.9,1.8-1.9,2.8-2.9-1.3-1.9-3.2-2.4-5.2-2.8-1.1-2.7-2-5.5.2-8.2-.4-.5-.7-.9-1-1.3-.9.3-1.7.5-2.7.8-3.3-.6-5.4-2.8-7-5.8,4-5.3,8.1-10.6,9.7-17.4,2.8.1,3.1,2.5,4.1,4.7.8,0,1.8,0,2.9.1.2-1.1.3-1.8.5-2.8.8,0,1.8,0,3.2.2-3.1-4.3-7.3-5.5-11.9-6.1-1.1-2.6.1-5.2.6-7.6,1-4.8,2.6-9.6,4.1-14.9-.5-.9-1.4-2.2-2.2-3.5-1.2-2.2-2.5-4.3-3.3-6.6-1.2-3.6.4-7.4,3.9-9.9,7,.7,13.6-2,20.4-3.7,7.6-1.9,15.3-3,23.2-1.7,5.8.9,14.5,3,19.5,7.3Zm-25.9,61.4c3.3-2.3,3.8-5.6,3.6-9.1,0-1.9-.6-3.5-2.6-4.2-4.6,3.6-5.2,9.6-1,13.2Z"/>
  <path class="cls-1" d="m620.4,206.8c-1.3-.7-2.1-1.2-3-1.7.6-3.5,4.2-2.5,6.2-4.2-2.7-2.2-6.3-.4-8.7-2.5-1.1-2.9,2.1-4.6,2.1-7.3-2.8-1.3-6.6,1.2-9.2-2.2,1-2.7,2.1-5.4,3.1-8.1.7-1.8,1.5-3.5,2.1-5.4.6-1.9,1-3.8.5-6-1.5-7.1.5-13.4,4.8-19.3,3.9,1.9,8.2,2.3,12.4,2.7,2.6.2,2.7.3,4.5,2.4,1.4,4-1.8,6.9-2.6,10.6.9,1.1,1.8,2.3,2.9,3.2,4.6,3.4,7,7.9,6.8,13.6,0,.3.2.6.3.9,4.4,2.1,6.2,1.4,7.8-3,.9-2.5,2.2-4.7,4.6-6.1,4.1-2.3,8.1,0,7.9,4.2,0,1.9,0,3.9-.5,5.7-1.1,4.3-3.2,7.8-8.5,8-.3,1.3-.6,2.3-.9,3.4-1.2,5-3.7,9.1-7.9,12.3-4.1,3-8.2,6-13,7.9-2.3.9-4.7,1.6-7.2,1.8-3.5.3-4.9-1.4-4.9-4.9,0-1,.2-2,.2-3,0-1,0-2,0-3.1Zm-4.5-36.3c-.1,2.1,1.9,2.3,2.6,3.5.8,1.3,1,3,3.3,3.4.7-.7,1.5-1.6,2.5-2.6.9-.4,2.6.5,3.7-.9-3.3-3.2-8.5-4.7-12.1-3.4Z"/>
  <path class="cls-1" d="m606.5,396.8c1.5.3,2.7.6,4.3,1-.1-1.2-.2-2.1-.3-3.1-3.7-1.5-8-2.4-7.9-8,3.4-.2,6.2,1.8,9.7,1.9,0-.9-.1-1.6-.2-2.3-2.6-.9-5-1.5-7.3-2.4-1.6-.6-3.1-1.4-4.4-2.4-1.6-1.2-1.7-2.1-1.2-4.8,4.3.2,8,2.8,12.6,3,.1-.9.2-1.9.3-2.8-.5-.3-.9-.7-1.3-.8-3.4-1.1-6.9-2.1-10.3-3.2-3.9-1.2-7.7-2.7-10.9-5.3-1.5-1.2-2.8-2.6-2.1-4.8,1.8-1,3.4-.2,4.9.5,7.4,3.2,15,5.6,22.8,7.5,2.6.7,5.3,1.1,8,1.5,2.3.4,4.2-.2,5.6-1.8.8-2.2-.2-3.8-1.2-5.3-2.2-3.5-4.5-7.1-5.5-11.2-.3-1.3-.5-2.7-.5-4,0-1.6.7-2.8,2.7-3.4.5.9,1.3,1.7,1.6,2.7,2,5.6,5.6,10,9.7,14.1.4.4.8.8,1.2,1.2,5.3,4.5,8.3,10.3,9.8,17,.5,2.3,1.5,4.5,2.4,7-3.8,6.6-5.9,14.2-7.5,22-2.8,1-5.4,0-8-.4-6.8-.9-13.5-2.7-19.9-5.4-1.6-.7-3.3-1.6-4.7-2.7-1.7-1.3-2.6-3.1-2.4-5.4Z"/>
  <path class="cls-1" d="m684.6,342.7v-2.8c-1.9-.5-3.8-1.1-5.7-1.6-4.6-1.1-9.2-2.4-13.3-4.9-1.4-.9-2.6-1.9-1.6-3.9,1.4-.9,2.8-.1,4.2.3,5.6,1.8,11.2,3.5,16.8,5.3.2,0,.4,0,.9-.1,0-1.9-.7-3.4-2.6-4.1-2.5-1-5.1-1.8-7.6-2.8-2.5-1-5-2.1-7.4-3.3-1-.5-1.7-1.3-2.6-1.9.8-2.6,2.6-2,4-1.7,3,.7,5.9,1.5,8.8,2.4,5,1.5,9.9,3.2,14.9,4.6,3.5,1,4.2.8,6.7-.7.9-1.9-.1-3.5-.6-5.2-1.5-4.8-2.4-9.6-2.4-14.7,0-1.5.2-2.9,1.6-4.2h3c.6,2,1.4,3.9,1.8,5.8,1.4,6.1,3.2,12,5.8,17.7,1.1,2.5,1.6,5.4,2.4,8.1.4,1.3.8,2.6,1.2,3.9.7,2.2,1.8,4.1,3.9,5-2.5,5.9-4.9,11.6-7.4,17.5-3,0-6.2.3-9.3,0-8.5-.8-16.6-3.2-24.1-7.5-1.6-.9-3-2-4.4-3.2-1-.8-1.5-2-.6-3.5,5.1.5,8.9,4.7,14.3,5.3v-3.8c-4-2.2-8.2-3.7-12.6-4.9-1.8-.5-3.7-1.1-5.4-1.9-1.7-.8-2.4-2.3-2-4.2,1.5-1,2.7,0,3.9.5,4,1.9,8.1,3.4,12.5,4.2.9.2,1.7.2,3,.4Z"/>
  <path class="cls-1" d="m464.1,293.1c-4.5-5.2-7.8-10.6-9.4-17.2.7-.5,1.3-.9,1.9-1.3,4.5-2.4,7.7-6,9.5-10.7,1.7-4.2,4.5-7.2,8.3-9.5,4.1-2.4,8-5.1,12-7.7,1.1-.7,2.3-1.4,3.3-2,1.4.5,1.7,1.3,1.2,2.2-1,1.6-2,3.3-3.4,4.6-1.5,1.5-3.4,2.6-5.2,3.8-1.1.8-2.3,1.5-2.2,3.3,2.7,1,5.5,1.3,8.3.9,5.9-.9,11.8-1.9,17.7-2.8,2-.3,4-.7,6-.9,1.1-.1,2.1.2,3.6.3-.9,1.9-2.3,2.4-3.6,2.8-3.6,1-7.2,1.8-10.8,2.7-1.9.5-4,.7-5.5,3.2,4.3-.7,8-1.2,11.7-1.8,3.7-.6,7.3-2.2,11.6-1.7-1.1,2.4-3,2.8-4.6,3.2-4.3,1.2-8.8,2.1-13.1,3.2-1.6.4-3.3.4-5,1.6,1.6,1,2.7.7,3.9.4,3.9-.9,7.9-1.9,11.8-2.8.6-.1,1.3-.1,2-.2.3,2-.9,2.6-2.2,3.1-2.1.8-4.3,1.4-6.5,2-2.8.7-5.7,1.2-8.6,1.8,0,.9-.1,1.5-.1,2.1.4,0,.6.2.8.2,2.8-.7,5.7-1.5,8.5-2.1.6-.1,1.4.1,2.1.2-.2,2.3-1.8,2.7-3.1,3.1-5.2,1.5-10.4,3.1-15.7,4.2-5.3,1-10.7,1.4-16.8,2.1-3.4,2-6.1,5.6-8.5,9.9Z"/>
  <path class="cls-1" d="m379.3,398.8c-1.4,3-2.6,5.6-3.7,8.4-.6,1.5-1.5,2.5-3,3.1-1.2.5-2.5,1.2-3.7,1.6-2.2.7-4.5,1.3-7,2-.5-2.9-.9-5.5-1.4-8.1-1.8-9.7-7.3-16.3-16.8-19.4-.5-.2-1-.4-1.6-.7,2.5-2.8,3.2-6.2,3.1-10.3,1.8-2,3.9-4.3,6-6.5,1.2-1.3,2.8-1.7,4.6-1.8,2.6,0,5.2-.4,7.7-.6,3.3-.3,6.6-.5,9.7.7,1.5.6,3,1.1,3.5,3-.4,1.7-2,2.2-3.3,2.5-2.4.6-4.7,1.3-7.3.4-2.6-.9-5,.3-6.5,2.7,5.4.2,10.7.9,15.9-1.7,2.1,3.2,2.9,6.4,2.4,10-.4,3.1-.9,6.2-1.1,9.4-.1,2.1.4,4,2.4,5.3Z"/>
  <path class="cls-1" d="m574.8,278.5c1.4-1,2.5-1.8,3.8-2.8-1.9-1.4-3.8-1.3-5.8-1.4-2.8-.1-5.5-.6-6.4-3.9.5-1.9,1.8-2.7,3-3,3.5.6,6.5,1.1,9.5,1.6.3,0,.6-.5,1.2-1.1-4-2-7.9-2.4-12.1-2.3-2.5-2.7-6-4.9-4.5-9.7,4.4-.6,7.2,2.7,11,3.9.4-2,0-3.8-.3-5.7-1.4-6.7-2.7-13.5-4.1-20.2-.5-2.2.4-3.7,2.4-4.6,2,.4,2.6,1.9,3.1,3.4,1.5,4.8,3.2,9.6,4.4,14.5,1.6,6.1,3.4,12.2,6,17.9,1.7,3.9,2.5,7.9,2.5,12.2,0,1.9.2,3.8.3,6.2-1.6,2.7-3.5,5.8-5.4,8.9-1.7,2.8-4.1,4-7.4,3.8-5.5-.3-9.8-2.3-12.4-7.4-2-3.9-4.4-7.6-7.6-10.8-1.3-1.4-1.9-3.5-2.7-5,1-2.6,2.8-3.3,5.3-3.7.4,1.4.7,2.9,1.3,4.2,1.1,2.3,2,4.9,3.7,6.8,3.5,4.2,8.9,3.2,11.2-1.7Z"/>
  <path class="cls-1" d="m389.2,327.5c9.4,1.4,17.7-1.9,26-5.4,7.2,3.3,14.5,6.1,20.9,10.7,2.8,2,5.3,4.2,6.2,7.9-1.6.4-2.3-.7-3.2-1.5-4.8-4.3-10.3-7.4-16.2-9.7-1.4-.5-2.9-1.3-4.7-.5.2,1.3,1.4,1.6,2.4,2.1,5.3,2.6,10.6,5,15.4,8.6,1.1.8,2.1,1.9,3.1,2.8-.7,1.5-1.7,1.4-2.5,1-1.4-.6-2.8-1.4-4.2-2.1-4.1-2-8.2-3.9-12.2-5.8-1.4-.7-2.8-.9-4.1.7,1.5,1.7,3.8,1.4,5.6,2.4,2,1.1,4.1,1.8,6.1,2.8,1.9,1,3.7,2.1,6,3.4-1,.5-1.5,1-2,.9-2.2-.2-4.5-.5-6.7-.9-1.1-.2-2.2-.6-3.2-1-4.3-1.5-8.5-1.7-12.9,0-6.6,2.5-13.4,1.5-20-.3-.9-.2-1.7-.5-2.6-.8,1-4.9,1.9-9.8,3-15.2Z"/>
  <path class="cls-1" d="m651.6,269.7c-.3-9.3-.7-18.5-1-27.8,1.7-1.6,3.4-3.1,5.2-4.7-2.4-3.1-4.7-5.8-6.9-8.7-4.7,1.3-6,5.2-8.3,8.7,1.2,1.6,2.4,3.1,3.6,4.8-1.4,9.5-2.9,19.1-4.2,27.7v-50.4c2.9,3.1,5.7,6.1,8.7,9.2,9.8-9,18.6-18.3,25.8-29.3,1.4.8,1.5,1.8.9,3.1-1.6,3.7-3.2,7.5-4.7,11.3-5.9,14.4-11.3,29-15.7,44-1.2,4-2.2,8-3.3,12.1Z"/>
  <path class="cls-1" d="m178.5,376.1c1.3.8,2.7,1.7,4,2.4,7.5,4.3,11.6,11,13.2,19.2,2.4,12.1,4.7,24.1,6.7,36.3,1.9,11.2,3.3,22.6,5,33.8,1.5,9.9,3.1,19.8,4.6,29.8,1.1,7.5,1.9,15,3,22.5.5,3.2,1.1,6.4,1.7,9.7.1.8.2,1.5.1,2.3-2.4-7.2-3.7-14.6-5-22-1.6-8.8-3.1-17.6-4.6-26.4-1.2-7.3-2.3-14.7-3.6-22.1-2.3-12.9-4.6-25.8-7.2-38.6-1.5-7.4-3.4-14.7-5.1-22.1-2.2-9.4-5.8-18.1-12.9-24.9Z"/>
  <path class="cls-1" d="m845.5,379.4c-1.2,1.5-2.5,3.1-3.7,4.6-5.2,6-8.5,13-10.2,20.8-3.2,15.2-6.5,30.4-9.6,45.7-2.6,12.8-5.1,25.6-7.7,38.5-2.2,10.6-4.3,21.2-6.6,31.8-.8,3.9-2.1,7.7-3.8,11.4.6-3.2,1.1-6.4,1.7-9.6,1.7-9.5,3.4-19.1,5.2-28.6,1.2-6.5,2.5-13.1,3.7-19.6,1.5-8.5,3-17.1,4.5-25.7,1.7-9.6,3.3-19.1,5-28.7,1-5.7,2.1-11.3,3.1-17,1.2-6.6,4.2-12.1,9.6-16.2,3-2.3,5.8-5,8.7-7.4,0,0,0,0,.1.1Z"/>
  <path class="cls-1" d="m229.5,245.9c.8.3,1.6.5,2.4,1,9.1,5.1,17.6,11.1,25.1,18.4,4.5,4.4,8.7,9.2,13.1,13.8,3,3.2,3.8,7,3.2,11.3-.2,1.5-.2,2.9-.6,4.4-.7,2.7,0,5.4.5,8,.7,3.9,1.3,7.8,1.4,11.8-1.4-3.8-2.8-7.6-4.3-11.3-2.8-7.4-5.9-14.7-9.6-21.6-3.5-6.4-8-12.1-12.7-17.6-5.6-6.6-11.8-12.4-18.9-17.4.1-.2.3-.5.4-.7Z"/>
  <path class="cls-1" d="m768.3,278.6c1-1,2.2-1.8,3.1-2.9,6.1-7.6,12.9-14.6,20.5-20.8,3.4-2.8,7.1-5.1,11.8-6.9-.4,1-.4,1.7-.8,2-9.7,8-16.9,18.3-23.6,28.7-4.4,6.8-8.5,13.8-12.8,21,.3-4.1.2-7.9-2.6-10.7,1.6-3.7,3.1-7,4.6-10.4,0,0,0,0,0,0Z"/>
  <path class="cls-1" d="m669,131.3c-4-.5-8-1.4-12.2-1.6-6.9-.4-13.8.7-20.4,2.6-7.4,2.1-14.7,4.4-22,6.6-1.6,4.1,0,7.3,2.4,10.3-5.8-4.4-7.1-9.2-4-14.2,5.2-1.5,10.4-2.9,15.6-4.4,5.4-1.6,10.8-3.2,16.5-3.8,8.4-.9,16.4.4,24,4.2.1,0,.2.3.2.3Z"/>
  <path class="cls-1" d="m409.1,141.5c-6.6-2.7-13.5-4.3-20.7-3.8-7.5.5-14.6,2.4-20.4,7.2-6.6,5.4-10.7,12.4-12.1,20.9-.4,2.6-.6,5.1-.8,7.1-1.9-10.5,2-19.9,9.5-27.9,4.8-5.1,11.1-7.9,17.9-8.9,9.4-1.3,18.4.3,26.7,5.4Z"/>
  <path class="cls-1" d="m695,532.4c6.2.6,71.4,15.5,84,19.5-2.5-.4-5.1-.6-7.6-1.2-12-2.6-24-5.1-36-8-12.5-3-24.9-6.3-37.4-9.4-.8-.2-1.5-.5-2.9-1Z"/>
  <path class="cls-1" d="m716.1,368.4c-1.8-.4-3.4-.8-5.4-1.3.3-1.4.4-2.8.8-4.1,1.3-4.2,2.6-8.4,4.1-12.5.8-2.3,1.7-4.7,4.2-6.2,1,.1,2.1.3,3,.5-2.2,7.9-4.4,15.7-6.6,23.6Z"/>
  <path class="cls-1" d="m240.3,551.6c28.2-7.4,55.8-14,83.5-20-8.1,3.5-76.6,20-83.5,20Z"/>
  <path class="cls-1" d="m380.8,395.1c0-2.1-.2-4,0-5.8,1.2-7.8.9-9-1.5-14.8.8,0,1.7-.5,2.1-.2,1.3.9,2.7,1.8,3.4,3.1,1,1.7,1.6,3.7,1.9,5.7.6,3.4-.1,6.8-1.4,9.9-.9,2.1-1.8,2.5-4.6,2.2Z"/>
  <path class="cls-1" d="m580.5,306.3c-.3-.2-.7-.4-1-.8-1.9-2.1-3.7-4.2-5.4-6.7,1.5.7,3.1,1.5,4.5,2.2,1.7,0,2.8-1,3.9-2,3-2.7,7.9-10.5,9.5-15.8,2.2,6.9-3.9,19.1-11.6,23.1Z"/>
  <path class="cls-1" d="m572.1,276.3c-.7,2.8-1.5,3.4-3.6,3.1-2.2-.3-3.8-1.5-4.9-3.3-.7-1.1-1.4-2.4-1.8-3.6-.6-2.2-1.5-4.2-3.2-5.9-1-.9-1.4-2.1-.7-3.8.8-.3,1.9-.7,3.3-1.3,1.7,1.8,3.3,3.5,4.8,5.2-3.4,4.6.6,9.2,6.1,9.6Z"/>
  <path class="cls-1" d="m783.7,296.2c-10.6,10.7-18.3,23.3-24.6,36.8,3.7-11.2,7.6-22.4,16.4-31,2.4-2.3,5.1-4.2,7.7-6.3l.5.5Z"/>
  <path class="cls-1" d="m253.9,300.8c6.3,3.6,11.2,8.6,14.8,14.9,3.7,6.6,6.6,13.6,8.8,20.8,0,.2,0,.4-.1.7-6.1-13.3-13.1-26-23.5-36.5Z"/>
  <path class="cls-1" d="m353.8,184.1c-2,4.2-5,7.4-8,10.6-3.1,3.3-6.1,6.6-8.2,10.7-2.2,4.3-3.5,8.8-4.1,13.7-.1-.5-.4-1-.4-1.6-.7-7.1,1.9-13.1,6.4-18.3,1.6-1.9,3.5-3.5,5.2-5.3,3-3.2,6-6.4,9.1-9.8Z"/>
  <path class="cls-1" d="m786.2,577.2c5.3,20.7,10.4,41.4,14.7,62.3-5.2-20.7-10.1-41.4-14.7-62.3Z"/>
  <path class="cls-1" d="m232.9,583.4c-4.7,19.4-9.3,38.7-14,58.1,3.8-19.5,8.7-38.8,14-58.1Z"/>
  <path class="cls-1" d="m678.3,619.1c4.1-19.1,9.1-38,14.6-56.8-4.9,18.9-9.7,37.9-14.6,56.8Z"/>
  <path class="cls-1" d="m341.7,617.1c-.5-1.8-1.1-3.6-1.6-5.4-3.5-14.5-7-29-10.4-43.5-.2-.9-.2-1.8-.3-2.7,0,0,0,0,0,0,1.3,4.7,2.7,9.4,3.8,14.2,2.7,11.2,5.2,22.5,7.8,33.8.3,1.2.4,2.4.6,3.6,0,0,0,0,0,0Z"/>
  <path class="cls-1" d="m336.7,383.7c-.9-.2-1.7-.3-2.6-.5,1.5-3.7.8-7.7,2.4-11.3.6,0,1.1,0,1.5,0,.4,0,.9.2,1.5.3-.9,3.9-.6,7.9-2.8,11.5Z"/>
  <path class="cls-1" d="m380.5,403.1c1.5-2.1,2.9-4.2,4.5-6.2,1.8-2.1,2.9-4.5,3.5-7.2,0,2.2.3,4.4,0,6.5-.4,2.7-2.1,4.9-4.1,6.8-1,.9-2.2,1-3.8.2Z"/>
  <path class="cls-1" d="m733.1,388.6c-2.1,5.4-4.3,10.6-6.6,16.3,0-6.7,1.8-12.1,6.6-16.3Z"/>
  <path class="cls-1" d="m379.5,405.2c1.2,0,2.3,0,3.4.1-1,2.6-1.2,2.8-4.3,2.7.3-.9.6-1.8.9-2.8Z"/>
  <path class="cls-1" d="m280.5,272.5c-2.5,1.9-5,3.8-7.9,6.1,2.3-3.2,3.1-3.7,7.9-6.1Z"/>
  <path class="cls-1" d="m768.4,278.6c-2.3-.4-2.9-2.3-3.7-4.2,1.2,1.4,2.4,2.8,3.6,4.3,0,0,0,0,0,0Z"/>
  <path class="cls-1" d="m341.7,617.1c.5,1.7,1,3.4,1.4,5.1-.2,0-.4,0-.6.1-.3-1.7-.5-3.5-.8-5.2h0Z"/>
  <path class="cls-1" d="m329.5,565.5c-.5-1.6-1-3.3-1.5-4.9.2,0,.4,0,.6-.1.3,1.7.6,3.4.9,5.1h0Z"/>
</svg>