<?xml version="1.0" encoding="UTF-8"?>
<svg id="Layer_1" data-name="Layer 1" xmlns="http://www.w3.org/2000/svg" width="1024" height="1024" viewBox="0 0 1024 1024">
  <defs>
    <style>
      .cls-1 {
        fill: #c43131;
      }

      .cls-1, .cls-2, .cls-3, .cls-4, .cls-5 {
        stroke-width: 0px;
      }

      .cls-2 {
        fill: #d83232;
      }

      .cls-3 {
        fill: #fff;
      }

      .cls-4 {
        fill: #ff6969;
      }

      .cls-5 {
        fill: #9099a4;
      }
    </style>
  </defs>
  <g>
    <path class="cls-3" d="m484.1,347v330c0,14.1-3.2,27.4-8.9,39.3h0c-9.8,9.4-21.1,17.1-33.7,22.7,13.6-12.1,22.1-29.7,22.1-49.3v-367.4c0-28.1-17.5-52-42.2-61.6,36.4,11.8,62.7,45.9,62.7,86.2Z"/>
    <polygon class="cls-2" points="313.5 342.6 313.5 689.4 296.6 689.4 296.6 333.3 313.5 342.6"/>
    <path class="cls-2" d="m441.5,739c-11.6,10.4-27,16.6-43.8,16.6h-18.3c-19.5,0-37-8.4-49-21.9h-83.9v-380l-24.7,26.7v387.1h171.7c36,0,67-21,81.7-51.3-9.8,9.4-21.1,17.1-33.7,22.7Z"/>
    <polygon class="cls-4" points="246.5 316.9 246.5 353.8 221.8 380.5 221.8 343.6 246.5 316.9"/>
    <path class="cls-2" d="m313.5,296h-38.8v.3l33.3,18.3h85.2v346.5c0,5.2-1.4,10.1-3.9,14.2l3.9,3.2,20.3,17v-399.6h-100Z"/>
    <path class="cls-3" d="m388.9,256.4h-167.1v87.3l24.7-26.7v416.9h142.5c30.4,0,55-24.6,55-55v-367.4c0-30.4-24.6-55-55-55Zm24.5,439.2l-20.3-17-3.9-3.2c-2.5,4.4-6.2,8-10.6,10.4-4.1,2.3-8.7,3.6-13.7,3.6h-90.3v-393.3h138.7v399.6Z"/>
  </g>
  <g>
    <path class="cls-2" d="m570.4,458.8l-15.7,20.3c.8.8,1.7,1.6,2.6,2.3l96.2,74.2,32.1,24.7,16.3,12.6,11.9,9.2v81.9l20.7,16.5v-115.2l-164-126.5Z"/>
    <path class="cls-2" d="m796.8,716.7c-11.6,29.8-40.6,51-74.5,51h-173.3l35-35h40.6c20.6,12.5,44.5,20.1,70.2,20.9h0c9,2.5,18.5,3.9,28.2,4.1h0c.3,0,.6,0,.9,0,.3,0,.6,0,.9,0s.6,0,.9,0c.3,0,.6,0,.9,0h0c14.5-.5,27.7-6,37.9-15,2.9-2.6,5.6-5.4,8-8.5,8.6-5,16.6-10.8,24-17.5Z"/>
    <path class="cls-3" d="m764.8,432.4v-140.6c0-19.6-15.8-35.4-35.4-35.4h-109.9c-40.3,0-73,32.7-73,73v130.3c0,7.4,2.9,14.4,8.1,19.5l15.7-20.3,164,126.5v115.2l-20.7-16.5h-94.9v-74c-25.9-6-50.3-16.2-72.3-29.8v187.5h2.5l35-35h142.3c21.2,0,38.4-17.2,38.4-38.4v-124.2c0-8.6-4-16.6-10.8-21.9l-135.2-104.3v-128.7h94.9v102.9c17.7,3.1,34.8,8,51.1,14.3Z"/>
    <path class="cls-1" d="m654.2,732.6c11.8,9.6,25.5,16.8,40.5,20.9-25.6-.9-49.6-8.4-70.2-20.9h29.6Z"/>
    <path class="cls-3" d="m802.2,581v106.8c0,10.2-1.9,19.9-5.4,28.9-7.4,6.6-15.4,12.5-24,17.5.4-.5.7-1,1.1-1.5,7.2-9.9,11.4-22.1,11.4-35.3v-125.3c0-13.6-5.8-26.5-15.9-35.5l-4.5-4-87.9-67.6-37.1-28.5h8.1c4.9,0,9.7,1.6,13.7,4.7l29,22.3,74.2,57.1,12.3,9.5c15.8,12.2,25.1,31,25.1,50.9Z"/>
    <path class="cls-2" d="m618.8,297.2h-23.6v170.3l23.6-23.6v-129.1h94.9v103.1c7,1.2,14,2.6,20.8,4.4v-125.2h-115.7Z"/>
    <path class="cls-5" d="m793.7,438v-27.2h-7.9v6.1c0,5.8-4.7,10.5-10.5,10.5s-9-3.3-10.1-7.8c-.2-.9-.4-1.8-.4-2.7v15.7c.1,0,.2,0,.4.1,1.1.5,2.3,1,3.4,1.5.2,0,.3.1.5.2,1.1.5,2.2,1,3.3,1.5,2.4,1.1,4.7,2.2,7,3.4,1.2.6,2.3,1.2,3.5,1.8,1,.5,1.3.7,2.4,1.2,3.3,1.8,3.5,1.8,4.3,2.2,1.2.7,2.7,1.8,4.3,3.7.2-.1-.2-9.9,0-10Z"/>
    <path class="cls-3" d="m789.7,274.6s0,0,0,0c-7.7-3.8-16.1-6.5-24.8-8-2.9-.5-6-.9-9-1.1,3.2,1.4,6.2,3.1,9,5,12.7,8.9,21,23.7,21,40.4v99.8h7.9v-134c-1.3-.7-2.7-1.4-4.1-2.1Z"/>
  </g>
</svg>